<?xml version="1.0" encoding="UTF-8" standalone="no"?>
<svg
   xmlns:dc="http://purl.org/dc/elements/1.1/"
   xmlns:cc="http://creativecommons.org/ns#"
   xmlns:rdf="http://www.w3.org/1999/02/22-rdf-syntax-ns#"
   xmlns:svg="http://www.w3.org/2000/svg"
   xmlns="http://www.w3.org/2000/svg"
   xmlns:sodipodi="http://sodipodi.sourceforge.net/DTD/sodipodi-0.dtd"
   xmlns:inkscape="http://www.inkscape.org/namespaces/inkscape"
   sodipodi:docname="minimize-symbolic.svg"
   height="16"
   id="svg7384"
   inkscape:version="1.0.2 (e86c870879, 2021-01-15)"
   version="1.1"
   width="16">
  <g
     inkscape:groupmode="layer"
     id="layer11"
     inkscape:label="icon"
     style="display:inline"
     transform="translate(-283.00021,-629)">
    <path
       id="path4047-4"
       style="color:#000000;font-style:normal;font-variant:normal;font-weight:normal;font-stretch:normal;font-size:medium;line-height:normal;font-family:sans-serif;font-variant-ligatures:normal;font-variant-position:normal;font-variant-caps:normal;font-variant-numeric:normal;font-variant-alternates:normal;font-variant-east-asian:normal;font-feature-settings:normal;font-variation-settings:normal;text-indent:0;text-align:start;text-decoration:none;text-decoration-line:none;text-decoration-style:solid;text-decoration-color:#000000;letter-spacing:normal;word-spacing:normal;text-transform:none;writing-mode:lr-tb;direction:ltr;text-orientation:mixed;dominant-baseline:auto;baseline-shift:baseline;text-anchor:start;white-space:normal;shape-padding:0;shape-margin:0;inline-size:0;clip-rule:nonzero;display:inline;overflow:visible;visibility:visible;isolation:auto;mix-blend-mode:normal;color-interpolation:sRGB;color-interpolation-filters:linearRGB;solid-color:#000000;solid-opacity:1;vector-effect:none;fill:#2e3436;fill-opacity:1;fill-rule:nonzero;stroke:none;stroke-linecap:butt;stroke-linejoin:miter;stroke-miterlimit:4;stroke-dasharray:none;stroke-dashoffset:0;stroke-opacity:1;color-rendering:auto;image-rendering:auto;shape-rendering:auto;text-rendering:auto;enable-background:accumulate;stop-color:#000000;stop-opacity:1;opacity:1;stroke-width:1;marker:none"
       transform="translate(283.00021,629)"
       d="m 7.2519531,7.53125 c -0.0058,1.96925 -0.011778,3.938933 -0.017578,5.908203 l 7.6757809,0.0332 c 0.0058,-1.96925 0.01178,-3.9389329 0.01758,-5.9082029 z M 5.0605469,5.2285156 c -0.00582,1.97434 -0.011758,3.947505 -0.017578,5.9218754 0.2557699,0.0038 0.5115981,0.0079 0.7675781,0.01172 a 0.60000002,0.60000002 0 0 1 0.2304687,0.05078 c 0.0042,-1.4325804 0.00944,-2.8642854 0.013672,-4.2968754 A 0.60000002,0.60000002 0 0 1 6.65625,6.3164062 0.60000002,0.60000002 0 0 1 6.7753906,6.3300781 l 6.0156254,0.023437 a 0.60000002,0.60000002 0 0 1 -0.002,-0.060547 V 5.2597656 Z M 3.0097656,2.8613281 c -0.00586,1.98487 -0.011728,3.9701781 -0.017578,5.9550781 0.25251,0.00375 0.5051025,0.00796 0.7578125,0.011719 a 0.60000002,0.60000002 0 0 1 0.099609,0.00977 c 0.00411,-1.40197 0.00758,-2.8030881 0.011719,-4.2050781 a 0.60000002,0.60000002 0 0 1 0.2519531,-0.484375 0.60000002,0.60000002 0 0 1 0.041016,-0.029297 0.60000002,0.60000002 0 0 1 0.00195,-0.00195 0.60000002,0.60000002 0 0 1 0.3203125,-0.091797 l 6.2070313,0.025391 a 0.60000002,0.60000002 0 0 1 -0.01757,-0.142586 V 2.8945312 Z m -0.59375,-1.2011719 8.6738284,0.037109 a 0.60000002,0.60000002 0 0 1 0.175781,-0.027344 0.60000002,0.60000002 0 0 1 0.599609,0.5996093 v 1.6386719 a 0.60000002,0.60000002 0 0 1 -0.01953,0.1484375 l 1.419922,0.00586 a 0.60000002,0.60000002 0 0 1 0.03125,0 0.60000002,0.60000002 0 0 1 0.002,0 0.60000002,0.60000002 0 0 1 0.08984,-0.00586 0.60000002,0.60000002 0 0 1 0.599609,0.5996094 v 1.6367188 a 0.60000002,0.60000002 0 0 1 -0.0039,0.066406 l 1.457031,0.00586 a 0.60000002,0.60000002 0 0 1 0.08984,-0.00781 0.60000002,0.60000002 0 0 1 0.597656,0.6015625 c -0.007,2.36961 -0.01448,4.7397344 -0.02148,7.1093744 a 0.60000002,0.60000002 0 0 1 -0.601563,0.597657 0.60000002,0.60000002 0 0 1 -0.0039,0 0.60000002,0.60000002 0 0 1 -0.08984,0.0078 l -8.7890621,-0.03516 a 0.60000002,0.60000002 0 0 1 -0.5976563,-0.603516 0.60000002,0.60000002 0 0 1 0.00781,-0.0957 0.60000002,0.60000002 0 0 1 0,-0.002 c 0.0016,-0.54177 0.00427,-1.08323 0.00586,-1.625 a 0.60000002,0.60000002 0 0 1 -0.2460937,0.05078 c -0.4425601,-0.0066 -0.884975,-0.0146 -1.328125,-0.02148 a 0.60000002,0.60000002 0 0 1 -0.025391,0.002 0.60000002,0.60000002 0 0 1 -0.027344,-0.002 0.60000002,0.60000002 0 0 1 -0.00391,0 0.60000002,0.60000002 0 0 1 -0.060547,-0.0078 0.60000002,0.60000002 0 0 1 -0.00391,0 0.60000002,0.60000002 0 0 1 -0.5019531,-0.59375 c 0.00169,-0.57433 0.00223,-1.148326 0.00391,-1.722656 a 0.60000002,0.60000002 0 0 1 -0.1132812,0.0098 c -0.44971,-0.0067 -0.9012425,-0.01252 -1.3515625,-0.01953 a 0.60000002,0.60000002 0 0 1 -0.5898438,-0.6093743 0.60000002,0.60000002 0 0 1 0,-0.00586 0.60000002,0.60000002 0 0 1 0,-0.00781 C 1.7980156,7.0151556 1.8055,4.6469838 1.8125,2.2773438 A 0.60000002,0.60000002 0 0 1 1.81445,2.2304688 0.60000002,0.60000002 0 0 1 1.82031,2.1816408 0.60000002,0.60000002 0 0 1 2.4160131,1.6601564 Z" />
  </g>
</svg>
